# xmcd
# 
# Track frame offsets:
#     150
#     10132
#     18695
#     31137
#     41820
#     56330
#     68630
#     80817
#     91410
#     102570
#     113895
#     126232
#     134295
#     145935
#     155392
#     163737
#     173917
#     183612
#     193684
#     205212
#     218045
#     226317
#     234532
#     246222
#     256230
#     268455
#     280650
# 
# Disc length: 3886
# 
# Revision: 6
# Processed by: cddbd v1.5.2PL0 Copyright (c) Steve Scherf et al.
# Submitted via: fre:ac v1.0.31
# 
DISCID=8d0f2a1b,8d0f2c1b
DTITLE=Chuck Berry - The Chess Box [CD2, 1958-1964)
DYEAR=1988
DGENRE=Rock/Pop
TTITLE0=Memphis
TTITLE1=Anthony Boy
TTITLE2=Jo Jo Gunne
TTITLE3=Sweet Little Rock 'N' Roller
TTITLE4=Merry Christmas Baby
TTITLE5=Run Rudolph Run
TTITLE6=Little Queenie
TTITLE7=Almost Grown
TTITLE8=Back In The U.S.A.
TTITLE9=Betty Jean
TTITLE10=Childhood Sweetheart
TTITLE11=Let It Rock
TTITLE12=To Pooped To Pop
TTITLE13=Bye Bye Johny
TTITLE14=Jaguar And Thunderbird
TTITLE15=Down The Road Apiece
TTITLE16=Confessin' The Blues
TTITLE17=Thirteen Question Method
TTITLE18=Crying Steel
TTITLE19=I'm Just A Lucky So And So
TTITLE20=I'm Talking About You
TTITLE21=Come On
TTITLE22=Nadine (Is It You?)
TTITLE23=Crazy Arms
TTITLE24=You Never Can Tell
TTITLE25=The Things You Used To Do
TTITLE26=Promised Land
EXTD=
EXTT0=\nYEAR: 1958
EXTT1=\nYEAR: 1958
EXTT2=\nYEAR: 1958
EXTT3=\nYEAR: 1958
EXTT4=\nYEAR: 1958
EXTT5=\nYEAR: 1958
EXTT6=\nYEAR: 1959
EXTT7=\nYEAR: 1959
EXTT8=\nYEAR: 1959
EXTT9=\nYEAR: 1959
EXTT10=\nYEAR: 1959
EXTT11=\nYEAR: 1959
EXTT12=\nYEAR: 1959
EXTT13=\nYEAR: 1960
EXTT14=\nYEAR: 1960
EXTT15=\nYEAR: 1960
EXTT16=\nYEAR: 1960
EXTT17=\nYEAR: 1960
EXTT18=\nYEAR: 1960
EXTT19=\nYEAR: 1960
EXTT20=\nYEAR: 1961
EXTT21=\nYEAR: 1961
EXTT22=\nYEAR: 1964
EXTT23=\nYEAR: 1964
EXTT24=\nYEAR: 1964
EXTT25=\nYEAR: 1964
EXTT26=\nYEAR: 1964
PLAYORDER=
